<svg width="32" height="32" viewBox="0 0 32 32" fill="none" xmlns="http://www.w3.org/2000/svg">
<path d="M0.5 8C0.5 3.85786 3.85786 0.5 8 0.5H24C28.1421 0.5 31.5 3.85786 31.5 8V24C31.5 28.1421 28.1421 31.5 24 31.5H8C3.85786 31.5 0.5 28.1421 0.5 24V8Z" fill="white"/>
<path d="M0.5 8C0.5 3.85786 3.85786 0.5 8 0.5H24C28.1421 0.5 31.5 3.85786 31.5 8V24C31.5 28.1421 28.1421 31.5 24 31.5H8C3.85786 31.5 0.5 28.1421 0.5 24V8Z" stroke="#E4E4E4"/>
<path d="M13.332 18.6667H15.9987M13.332 15.3333H18.6653" stroke="#000A11" stroke-width="1.5" stroke-linecap="round"/>
<path d="M12.9998 10.3333C11.9626 10.3645 11.3442 10.4799 10.9164 10.9082C10.3306 11.4945 10.3306 12.4382 10.3306 14.3256V18.6629C10.3306 20.5503 10.3306 21.494 10.9164 22.0803C11.5021 22.6667 12.445 22.6667 14.3306 22.6667H17.6639C19.5495 22.6667 20.4923 22.6667 21.0781 22.0803C21.6639 21.494 21.6639 20.5503 21.6639 18.6629V14.3256C21.6639 12.4382 21.6639 11.4945 21.0781 10.9082C20.6502 10.4799 20.0318 10.3645 18.9946 10.3333" stroke="#000A11" stroke-width="1.5"/>
<path d="M12.9976 10.5C12.9976 9.85568 13.5199 9.33334 14.1642 9.33334H17.8309C18.4752 9.33334 18.9976 9.85568 18.9976 10.5C18.9976 11.1443 18.4752 11.6667 17.8309 11.6667H14.1642C13.5199 11.6667 12.9976 11.1443 12.9976 10.5Z" stroke="#000A11" stroke-width="1.5" stroke-linejoin="round"/>
</svg>
