<svg width="32" height="32" viewBox="0 0 32 32" fill="none" xmlns="http://www.w3.org/2000/svg">
<path d="M0.5 8C0.5 3.85786 3.85786 0.5 8 0.5H24C28.1421 0.5 31.5 3.85786 31.5 8V24C31.5 28.1421 28.1421 31.5 24 31.5H8C3.85786 31.5 0.5 28.1421 0.5 24V8Z" fill="white"/>
<path d="M0.5 8C0.5 3.85786 3.85786 0.5 8 0.5H24C28.1421 0.5 31.5 3.85786 31.5 8V24C31.5 28.1421 28.1421 31.5 24 31.5H8C3.85786 31.5 0.5 28.1421 0.5 24V8Z" stroke="#E4E4E4"/>
<g clip-path="url(#clip0_1_80)">
<path d="M17.3826 10.5903C17.8794 10.052 18.1278 9.78293 18.3918 9.62595C19.0286 9.24717 19.8129 9.23539 20.4604 9.59487C20.7288 9.74386 20.9848 10.0054 21.4968 10.5285C22.0089 11.0516 22.265 11.3131 22.4108 11.5873C22.7627 12.2487 22.7512 13.0499 22.3804 13.7005C22.2267 13.9701 21.9632 14.2238 21.4364 14.7313L15.1672 20.7695C14.1688 21.7313 13.6695 22.2121 13.0455 22.4558C12.4216 22.6995 11.7356 22.6816 10.3637 22.6457L10.1771 22.6409C9.75944 22.6299 9.55061 22.6245 9.42922 22.4867C9.30783 22.3489 9.3244 22.1362 9.35755 21.7108L9.37555 21.4798C9.46884 20.2823 9.51548 19.6837 9.7493 19.1455C9.98312 18.6073 10.3865 18.1703 11.1931 17.2963L17.3826 10.5903Z" stroke="#000A11" stroke-width="1.5" stroke-linejoin="round"/>
<path d="M16.6665 10.6667L21.3332 15.3333" stroke="#000A11" stroke-width="1.5" stroke-linejoin="round"/>
<path d="M17.3335 22.6667H22.6668" stroke="#000A11" stroke-width="1.5" stroke-linecap="round" stroke-linejoin="round"/>
</g>
<defs>
<clipPath id="clip0_1_80">
<rect width="16" height="16" fill="white" transform="translate(8 8)"/>
</clipPath>
</defs>
</svg>
