<svg width="53" height="53" viewBox="0 0 53 53" fill="none" xmlns="http://www.w3.org/2000/svg">
<g id="Frame">
<path id="Vector" d="M42.2101 12.4462C44.0557 14.2917 45.5197 16.4827 46.5185 18.8941C47.5173 21.3055 48.0314 23.89 48.0314 26.5C48.0314 29.11 47.5173 31.6945 46.5185 34.1059C45.5197 36.5172 44.0557 38.7083 42.2101 40.5538M36.3558 18.3027C38.5296 20.4769 39.7508 23.4255 39.7508 26.5C39.7508 29.5745 38.5296 32.5231 36.3558 34.6973M14.9063 18.2187L25.3296 7.79541C25.5612 7.56408 25.8562 7.40657 26.1773 7.34278C26.4984 7.27899 26.8312 7.31179 27.1336 7.43703C27.4361 7.56227 27.6947 7.77433 27.8767 8.04643C28.0587 8.31853 28.156 8.63847 28.1563 8.96583V44.0342C28.156 44.3615 28.0587 44.6815 27.8767 44.9536C27.6947 45.2257 27.4361 45.4377 27.1336 45.563C26.8312 45.6882 26.4984 45.721 26.1773 45.6572C25.8562 45.5934 25.5612 45.4359 25.3296 45.2046L14.9063 34.7812H9.95959C8.01626 34.7812 6.19659 33.6616 5.67984 31.7912C5.20617 30.0674 4.96699 28.2877 4.96876 26.5C4.96876 24.6671 5.21609 22.8938 5.67984 21.2088C6.19659 19.3362 8.01626 18.2187 9.95959 18.2187H14.9063Z" stroke="#000A11" stroke-width="4" stroke-linecap="round" stroke-linejoin="round"/>
</g>
</svg>
