<svg width="40" height="40" viewBox="0 0 40 40" fill="none" xmlns="http://www.w3.org/2000/svg">
<rect width="40" height="40" rx="12" fill="#000A11"/>
<path d="M27.114 13.636C27.9497 14.4717 28.6127 15.4639 29.065 16.5558C29.5173 17.6478 29.7501 18.8181 29.7501 20C29.7501 21.1819 29.5173 22.3522 29.065 23.4442C28.6127 24.5361 27.9497 25.5283 27.114 26.364M24.463 16.288C25.4474 17.2725 26.0004 18.6078 26.0004 20C26.0004 21.3922 25.4474 22.7275 24.463 23.712M14.75 16.25L19.47 11.53C19.5749 11.4252 19.7085 11.3539 19.8539 11.325C19.9993 11.2962 20.15 11.311 20.2869 11.3677C20.4239 11.4244 20.541 11.5205 20.6234 11.6437C20.7058 11.7669 20.7499 11.9118 20.75 12.06V27.94C20.7499 28.0882 20.7058 28.2331 20.6234 28.3563C20.541 28.4795 20.4239 28.5756 20.2869 28.6323C20.15 28.689 19.9993 28.7038 19.8539 28.675C19.7085 28.6461 19.5749 28.5748 19.47 28.47L14.75 23.75H12.51C11.63 23.75 10.806 23.243 10.572 22.396C10.3575 21.6154 10.2492 20.8095 10.25 20C10.25 19.17 10.362 18.367 10.572 17.604C10.806 16.756 11.63 16.25 12.51 16.25H14.75Z" stroke="white" stroke-width="1.5" stroke-linecap="round" stroke-linejoin="round"/>
</svg>
