<svg width="32" height="32" viewBox="0 0 32 32" fill="none" xmlns="http://www.w3.org/2000/svg">
<path d="M0.5 8C0.5 3.85786 3.85786 0.5 8 0.5H24C28.1421 0.5 31.5 3.85786 31.5 8V24C31.5 28.1421 28.1421 31.5 24 31.5H8C3.85786 31.5 0.5 28.1421 0.5 24V8Z" fill="white"/>
<path d="M0.5 8C0.5 3.85786 3.85786 0.5 8 0.5H24C28.1421 0.5 31.5 3.85786 31.5 8V24C31.5 28.1421 28.1421 31.5 24 31.5H8C3.85786 31.5 0.5 28.1421 0.5 24V8Z" stroke="#E4E4E4"/>
<path d="M20.9752 10.6628C19.1874 9.56615 17.6271 10.0081 16.6898 10.712C16.3054 11.0006 16.1132 11.145 16.0002 11.145C15.8871 11.145 15.695 11.0006 15.3106 10.712C14.3732 10.0081 12.8129 9.56615 11.0251 10.6628C8.67888 12.102 8.14798 16.8499 13.5598 20.8556C14.5906 21.6185 15.106 22 16.0002 22C16.8943 22 17.4097 21.6185 18.4405 20.8556C23.8524 16.8499 23.3214 12.102 20.9752 10.6628Z" stroke="#000A11" stroke-width="1.5" stroke-linecap="round"/>
</svg>
