<svg width="32" height="32" viewBox="0 0 32 32" fill="none" xmlns="http://www.w3.org/2000/svg">
<path d="M0.5 8C0.5 3.85786 3.85786 0.5 8 0.5H24C28.1421 0.5 31.5 3.85786 31.5 8V24C31.5 28.1421 28.1421 31.5 24 31.5H8C3.85786 31.5 0.5 28.1421 0.5 24V8Z" fill="white"/>
<path d="M0.5 8C0.5 3.85786 3.85786 0.5 8 0.5H24C28.1421 0.5 31.5 3.85786 31.5 8V24C31.5 28.1421 28.1421 31.5 24 31.5H8C3.85786 31.5 0.5 28.1421 0.5 24V8Z" stroke="#E4E4E4"/>
<g clip-path="url(#clip0_1_107)">
<path d="M18.111 8.6665L18.5096 9.41169C18.7791 9.91548 18.9138 10.1674 18.8248 10.2753C18.7356 10.3831 18.4422 10.296 17.8552 10.1218C17.2684 9.94754 16.6454 9.85381 15.9998 9.85381C12.502 9.85381 9.6665 12.6055 9.6665 15.9999C9.6665 17.1193 9.97492 18.1689 10.5138 19.0729M13.8887 23.3332L13.4901 22.588C13.2206 22.0842 13.0858 21.8323 13.1749 21.7244C13.264 21.6165 13.5575 21.7037 14.1444 21.8779C14.7312 22.0521 15.3542 22.1459 15.9998 22.1459C19.4976 22.1459 22.3332 19.3942 22.3332 15.9999C22.3332 14.8804 22.0248 13.8308 21.4859 12.9268" stroke="#000A11" stroke-width="1.5" stroke-linecap="round" stroke-linejoin="round"/>
</g>
<defs>
<clipPath id="clip0_1_107">
<rect width="16" height="16" fill="white" transform="translate(8 8)"/>
</clipPath>
</defs>
</svg>
