<svg width="32" height="32" viewBox="0 0 32 32" fill="none" xmlns="http://www.w3.org/2000/svg">
<path d="M0.5 8C0.5 3.85786 3.85786 0.5 8 0.5H24C28.1421 0.5 31.5 3.85786 31.5 8V24C31.5 28.1421 28.1421 31.5 24 31.5H8C3.85786 31.5 0.5 28.1421 0.5 24V8Z" fill="white"/>
<path d="M0.5 8C0.5 3.85786 3.85786 0.5 8 0.5H24C28.1421 0.5 31.5 3.85786 31.5 8V24C31.5 28.1421 28.1421 31.5 24 31.5H8C3.85786 31.5 0.5 28.1421 0.5 24V8Z" stroke="#E4E4E4"/>
<path d="M20.7427 11.7573C21.2998 12.3145 21.7418 12.9759 22.0433 13.7039C22.3449 14.4318 22.5001 15.212 22.5001 16C22.5001 16.7879 22.3449 17.5681 22.0433 18.2961C21.7418 19.0241 21.2998 19.6855 20.7427 20.2427M18.9753 13.5253C19.6316 14.1817 20.0003 15.0718 20.0003 16C20.0003 16.9281 19.6316 17.8183 18.9753 18.4747M12.5 13.5L15.6467 10.3533C15.7166 10.2835 15.8056 10.2359 15.9026 10.2167C15.9995 10.1974 16.1 10.2073 16.1913 10.2451C16.2826 10.2829 16.3607 10.347 16.4156 10.4291C16.4705 10.5112 16.4999 10.6078 16.5 10.7067V21.2933C16.4999 21.3921 16.4705 21.4887 16.4156 21.5709C16.3607 21.653 16.2826 21.717 16.1913 21.7548C16.1 21.7927 15.9995 21.8026 15.9026 21.7833C15.8056 21.764 15.7166 21.7165 15.6467 21.6467L12.5 18.5H11.0067C10.42 18.5 9.87067 18.162 9.71467 17.5973C9.57167 17.0769 9.49947 16.5397 9.5 16C9.5 15.4467 9.57467 14.9113 9.71467 14.4027C9.87067 13.8373 10.42 13.5 11.0067 13.5H12.5Z" stroke="#000A11" stroke-width="1.5" stroke-linecap="round" stroke-linejoin="round"/>
</svg>
